<svg width="1399" height="423" viewBox="0 0 1399 423" fill="none" xmlns="http://www.w3.org/2000/svg">
<path d="M477.177 279L439.959 155.843H466.181L487.074 236.284L489.188 244.574L491.472 236.2L512.449 155.843H538.671L501.369 279H477.177ZM610.485 279C609.921 277.872 609.441 276.575 609.047 275.109C608.652 273.643 608.314 272.092 608.032 270.457C606.735 271.867 605.24 273.192 603.549 274.432C601.857 275.673 599.996 276.744 597.966 277.647C595.879 278.605 593.596 279.338 591.114 279.846C588.633 280.41 585.955 280.692 583.079 280.692C578.398 280.692 574.084 280.015 570.137 278.662C566.246 277.308 562.891 275.419 560.071 272.994C557.252 270.57 555.053 267.694 553.474 264.367C551.895 260.983 551.105 257.318 551.105 253.37C551.105 248.295 552.092 243.812 554.066 239.921C556.039 235.974 559 232.731 562.947 230.194C566.5 227.882 570.87 226.134 576.058 224.95C581.302 223.709 587.308 223.089 594.075 223.089H607.186V217.675C607.186 215.532 606.847 213.615 606.171 211.923C605.494 210.175 604.479 208.681 603.126 207.44C601.716 206.143 599.94 205.156 597.797 204.48C595.71 203.747 593.257 203.38 590.438 203.38C587.957 203.38 585.814 203.69 584.009 204.311C582.205 204.875 580.739 205.692 579.611 206.764C578.596 207.722 577.834 208.878 577.327 210.232C576.876 211.585 576.65 213.079 576.65 214.715H553.135C553.135 210.824 553.981 207.13 555.673 203.634C557.421 200.138 559.959 197.064 563.286 194.414C566.556 191.764 570.56 189.677 575.297 188.155C580.09 186.576 585.56 185.786 591.706 185.786C597.233 185.786 602.364 186.463 607.101 187.816C611.894 189.17 616.039 191.172 619.535 193.822C623.031 196.472 625.766 199.828 627.74 203.888C629.714 207.891 630.701 212.544 630.701 217.844V257.092C630.701 261.998 631.011 266.058 631.631 269.273C632.251 272.487 633.154 275.25 634.338 277.562V279H610.485ZM588.069 262.506C590.438 262.506 592.637 262.224 594.667 261.66C596.697 261.096 598.53 260.363 600.165 259.461C601.8 258.558 603.21 257.543 604.394 256.416C605.579 255.231 606.509 254.047 607.186 252.863V237.13H595.175C591.509 237.13 588.379 237.496 585.785 238.23C583.192 238.906 581.077 239.865 579.442 241.105C577.806 242.402 576.594 243.953 575.804 245.758C575.015 247.506 574.62 249.423 574.62 251.51C574.62 253.145 574.902 254.667 575.466 256.077C576.086 257.431 576.96 258.587 578.088 259.545C579.216 260.447 580.598 261.181 582.233 261.744C583.925 262.252 585.87 262.506 588.069 262.506ZM716.386 253.878C716.386 252.468 716.048 251.228 715.371 250.156C714.751 249.085 713.623 248.07 711.988 247.111C710.296 246.209 708.069 245.363 705.305 244.574C702.542 243.784 699.046 242.995 694.817 242.205C689.46 241.134 684.554 239.809 680.099 238.23C675.7 236.594 671.922 234.621 668.764 232.309C665.606 230.053 663.125 227.431 661.321 224.442C659.573 221.453 658.699 218.014 658.699 214.123C658.699 210.344 659.601 206.735 661.405 203.296C663.21 199.856 665.804 196.839 669.187 194.245C672.571 191.651 676.687 189.593 681.537 188.07C686.386 186.548 691.856 185.786 697.946 185.786C704.319 185.786 710.042 186.548 715.117 188.07C720.193 189.536 724.506 191.566 728.059 194.16C731.555 196.811 734.234 199.94 736.095 203.549C737.956 207.158 738.886 211.077 738.886 215.307H715.371C715.371 213.784 715.117 212.374 714.61 211.077C714.102 209.724 713.341 208.512 712.326 207.44C710.916 206.031 708.999 204.903 706.574 204.057C704.206 203.211 701.33 202.788 697.946 202.788C695.071 202.788 692.561 203.07 690.418 203.634C688.275 204.198 686.527 204.987 685.174 206.002C683.933 206.905 682.975 207.976 682.298 209.217C681.678 210.401 681.368 211.67 681.368 213.023C681.368 214.376 681.65 215.645 682.213 216.829C682.777 217.957 683.792 218.972 685.259 219.874C686.668 220.833 688.614 221.707 691.095 222.497C693.576 223.23 696.734 223.878 700.569 224.442C706.095 225.344 711.226 226.5 715.963 227.91C720.7 229.32 724.788 231.124 728.228 233.324C731.668 235.579 734.347 238.314 736.264 241.528C738.238 244.686 739.224 248.464 739.224 252.863C739.224 256.923 738.238 260.673 736.264 264.113C734.347 267.496 731.612 270.429 728.059 272.91C724.45 275.391 720.108 277.336 715.033 278.746C709.958 280.1 704.29 280.776 698.031 280.776C691.151 280.776 685.061 279.874 679.76 278.07C674.516 276.265 670.118 273.897 666.565 270.964C663.012 268.088 660.306 264.818 658.445 261.152C656.64 257.431 655.738 253.709 655.738 249.987H678.153C678.322 252.468 678.999 254.611 680.183 256.416C681.368 258.164 682.89 259.573 684.751 260.645C686.612 261.773 688.727 262.59 691.095 263.098C693.52 263.605 696.001 263.859 698.539 263.859C701.584 263.859 704.234 263.605 706.49 263.098C708.802 262.534 710.691 261.801 712.157 260.899C713.567 259.996 714.61 258.953 715.287 257.769C716.02 256.585 716.386 255.288 716.386 253.878ZM804.525 165.063V187.478H838.697V204.818H804.525V244.151C804.525 247.478 804.891 250.269 805.624 252.525C806.414 254.724 807.513 256.472 808.923 257.769C810.333 259.122 812.025 260.081 813.998 260.645C816.028 261.209 818.284 261.491 820.765 261.491C822.57 261.491 824.402 261.406 826.263 261.237C828.181 261.068 830.013 260.842 831.761 260.56C833.453 260.335 835.032 260.081 836.498 259.799C838.021 259.517 839.318 259.235 840.389 258.953L842.673 275.109C841.038 276.068 839.12 276.914 836.921 277.647C834.722 278.323 832.382 278.887 829.901 279.338C827.419 279.789 824.825 280.128 822.119 280.353C819.468 280.635 816.846 280.776 814.252 280.776C809.233 280.776 804.666 280.128 800.549 278.831C796.489 277.477 793.021 275.391 790.145 272.571C787.213 269.808 784.957 266.284 783.378 261.998C781.799 257.656 781.01 252.468 781.01 246.434V204.818H760.117V187.478H781.01V165.063H804.525ZM870.333 149.076H921.507V259.884H947.729V279H870.333V259.884H897.738V168.277H870.333V149.076ZM975.727 187.478H1025.55V259.884H1050.33V279H975.727V259.884H1001.78V206.679H975.727V187.478ZM1000.09 164.048C1000.09 162.243 1000.4 160.58 1001.02 159.057C1001.69 157.478 1002.63 156.125 1003.81 154.997C1004.99 153.926 1006.4 153.08 1008.04 152.459C1009.73 151.839 1011.59 151.529 1013.62 151.529C1017.79 151.529 1021.09 152.713 1023.52 155.082C1026 157.394 1027.24 160.382 1027.24 164.048C1027.24 167.713 1026 170.73 1023.52 173.098C1021.09 175.41 1017.79 176.566 1013.62 176.566C1011.59 176.566 1009.73 176.256 1008.04 175.636C1006.4 175.016 1004.99 174.142 1003.81 173.014C1002.63 171.942 1001.69 170.645 1001.02 169.123C1000.4 167.544 1000.09 165.852 1000.09 164.048ZM1073.51 279V187.478H1094.82L1096.26 200.166C1097.45 198.474 1098.74 196.923 1100.15 195.514C1101.56 194.104 1103.06 192.835 1104.64 191.707C1107.34 189.79 1110.3 188.324 1113.52 187.309C1116.73 186.294 1120.14 185.786 1123.75 185.786C1128.38 185.786 1132.61 186.463 1136.44 187.816C1140.27 189.17 1143.6 191.313 1146.42 194.245C1149.18 197.234 1151.33 201.068 1152.85 205.749C1154.43 210.373 1155.22 216.012 1155.22 222.666V279H1131.7V223.004C1131.7 219.395 1131.28 216.435 1130.43 214.123C1129.64 211.754 1128.49 209.893 1126.97 208.54C1125.44 207.187 1123.61 206.256 1121.47 205.749C1119.33 205.185 1116.9 204.903 1114.19 204.903C1111.94 204.903 1109.85 205.156 1107.93 205.664C1106.07 206.171 1104.41 206.933 1102.94 207.948C1101.76 208.681 1100.69 209.555 1099.73 210.57C1098.77 211.585 1097.9 212.713 1097.11 213.953V279H1073.51ZM1211.98 241.19L1201.32 251.087V279H1177.8V149.076H1201.32V223.342L1208.42 215.222L1233.71 187.478H1261.97L1227.45 225.626L1266.79 279H1237.94L1211.98 241.19Z" fill="white"/>
<path fill-rule="evenodd" clip-rule="evenodd" d="M180.712 286.111L130 198.5V198.5C144.76 191.534 162.397 197.038 170.574 211.165L206.821 273.788C208.505 277.355 213.529 277.492 215.406 274.023L234.224 239.803C241.924 225.802 259.478 220.638 273.532 228.24V228.24L240.801 287.759C227.666 312.044 192.496 311.08 180.712 286.111Z" fill="#52C41A"/>
<path fill-rule="evenodd" clip-rule="evenodd" d="M302.821 148.307L353.532 235.918V235.918C338.772 242.884 321.135 237.379 312.959 223.253L276.711 160.63C275.027 157.063 270.003 156.926 268.127 160.395L249.308 194.615C241.609 208.616 224.054 213.78 210 206.178V206.178L242.731 146.659C255.866 122.374 291.036 123.338 302.821 148.307Z" fill="#52C41A"/>
</svg>
