<svg width="312" height="312" viewBox="0 0 312 312" fill="none" xmlns="http://www.w3.org/2000/svg">
<path fill-rule="evenodd" clip-rule="evenodd" d="M96.7116 228.111L46 140.5V140.5C60.7604 133.534 78.3969 139.038 86.5735 153.165L122.821 215.788C124.505 219.355 129.529 219.492 131.406 216.023L150.224 181.803C157.924 167.802 175.478 162.638 189.532 170.24V170.24L156.801 229.759C143.666 254.044 108.496 253.08 96.7116 228.111Z" fill="#52C41A"/>
<path fill-rule="evenodd" clip-rule="evenodd" d="M218.821 90.3068L269.532 177.918V177.918C254.772 184.884 237.135 179.379 228.959 165.253L192.711 102.63C191.027 99.0634 186.003 98.9256 184.127 102.395L165.308 136.615C157.609 150.616 140.054 155.78 126 148.178V148.178L158.731 88.6593C171.866 64.374 207.036 65.3383 218.821 90.3068Z" fill="#52C41A"/>
</svg>
